<svg xmlns="http://www.w3.org/2000/svg" xmlns:xlink="http://www.w3.org/1999/xlink" width="500" zoomAndPan="magnify" viewBox="0 0 375 374.999991" height="500" preserveAspectRatio="xMidYMid meet" version="1.0"><defs><g/><clipPath id="7bd7f15d37"><path d="M 113.878906 113.878906 L 261.035156 113.878906 L 261.035156 118.292969 L 113.878906 118.292969 Z M 256.671875 118.292969 L 261.035156 118.292969 L 261.035156 256.671875 L 256.671875 256.671875 Z M 113.878906 118.292969 L 118.292969 118.292969 L 118.292969 256.671875 L 113.878906 256.671875 Z M 113.878906 256.671875 L 261.035156 256.671875 L 261.035156 261.035156 L 113.878906 261.035156 Z M 113.878906 256.671875 " clip-rule="nonzero"/></clipPath></defs><rect x="-37.5" width="450" fill="#ffffff" y="-37.499999" height="449.999989" fill-opacity="1"/><rect x="-37.5" width="450" fill="#000000" y="-37.499999" height="449.999989" fill-opacity="1"/><g clip-path="url(#7bd7f15d37)"><path fill="#ffffff" d="M 113.878906 113.878906 L 261.035156 113.878906 L 261.035156 261.035156 L 113.878906 261.035156 Z M 113.878906 113.878906 " fill-opacity="1" fill-rule="nonzero"/></g><g fill="#ffffff" fill-opacity="1"><g transform="translate(133.701851, 178.499988)"><g><path d="M 3.140625 0 C 3.140625 0 3.140625 -10.921875 3.140625 -32.765625 C 3.140625 -32.765625 9.007812 -32.765625 20.75 -32.765625 C 20.75 -32.765625 20.75 -30.828125 20.75 -26.953125 C 20.75 -26.953125 16.90625 -26.953125 9.21875 -26.953125 C 9.21875 -26.953125 9.21875 -24.382812 9.21875 -19.25 C 9.21875 -19.25 12.898438 -19.25 20.265625 -19.25 C 20.265625 -19.25 20.265625 -17.316406 20.265625 -13.453125 C 20.265625 -13.453125 16.582031 -13.453125 9.21875 -13.453125 C 9.21875 -13.453125 9.21875 -10.898438 9.21875 -5.796875 C 9.21875 -5.796875 13.0625 -5.796875 20.75 -5.796875 C 20.75 -5.796875 20.75 -3.863281 20.75 0 C 20.75 0 14.878906 0 3.140625 0 Z M 3.140625 0 "/></g></g></g><g fill="#ffffff" fill-opacity="1"><g transform="translate(156.934684, 178.499988)"><g><path d="M 0.296875 0 C 0.296875 0 4.851562 -10.921875 13.96875 -32.765625 C 13.96875 -32.765625 15.5625 -32.765625 18.75 -32.765625 C 18.75 -32.765625 23.332031 -21.84375 32.5 0 C 32.5 0 30.269531 0 25.8125 0 C 25.8125 0 24.640625 -2.820312 22.296875 -8.46875 C 22.296875 -8.46875 18.414062 -8.46875 10.65625 -8.46875 C 10.65625 -8.46875 9.441406 -5.644531 7.015625 0 C 7.015625 0 4.773438 0 0.296875 0 Z M 12.859375 -14.265625 C 12.859375 -14.265625 15.195312 -14.265625 19.875 -14.265625 C 19.875 -14.265625 18.707031 -17.578125 16.375 -24.203125 C 16.375 -24.203125 15.203125 -20.890625 12.859375 -14.265625 Z M 12.859375 -14.265625 "/></g></g></g><g fill="#ffffff" fill-opacity="1"><g transform="translate(189.737797, 178.499988)"><g><path d="M 0.84375 -9.359375 C 0.84375 -9.359375 2.957031 -9.359375 7.1875 -9.359375 C 7.445312 -6.640625 8.925781 -5.28125 11.625 -5.28125 C 12.9375 -5.28125 14 -5.644531 14.8125 -6.375 C 15.632812 -7.113281 16.046875 -8.078125 16.046875 -9.265625 C 16.046875 -10.722656 15.503906 -11.863281 14.421875 -12.6875 C 13.929688 -13.050781 13.421875 -13.347656 12.890625 -13.578125 C 12.367188 -13.804688 11.03125 -14.316406 8.875 -15.109375 C 6.664062 -15.929688 4.972656 -17.109375 3.796875 -18.640625 C 2.617188 -20.171875 2.03125 -21.96875 2.03125 -24.03125 C 2.03125 -26.632812 2.953125 -28.835938 4.796875 -30.640625 C 6.648438 -32.441406 8.910156 -33.34375 11.578125 -33.34375 C 13.148438 -33.34375 14.628906 -33.015625 16.015625 -32.359375 C 17.398438 -31.703125 18.535156 -30.789062 19.421875 -29.625 C 20.015625 -28.8125 20.457031 -27.972656 20.75 -27.109375 C 21.050781 -26.253906 21.226562 -25.226562 21.28125 -24.03125 L 14.984375 -24.03125 C 14.898438 -25.125 14.550781 -25.972656 13.9375 -26.578125 C 13.332031 -27.191406 12.523438 -27.5 11.515625 -27.5 C 10.523438 -27.5 9.71875 -27.1875 9.09375 -26.5625 C 8.46875 -25.945312 8.15625 -25.144531 8.15625 -24.15625 C 8.15625 -22.9375 8.789062 -21.9375 10.0625 -21.15625 C 10.34375 -20.96875 11.53125 -20.488281 13.625 -19.71875 C 15.25 -19.101562 16.414062 -18.601562 17.125 -18.21875 C 17.84375 -17.832031 18.519531 -17.347656 19.15625 -16.765625 C 21.101562 -14.984375 22.078125 -12.707031 22.078125 -9.9375 C 22.078125 -6.976562 21.070312 -4.484375 19.0625 -2.453125 C 17.050781 -0.429688 14.570312 0.578125 11.625 0.578125 C 9.820312 0.578125 8.144531 0.210938 6.59375 -0.515625 C 5.039062 -1.253906 3.789062 -2.28125 2.84375 -3.59375 C 2.207031 -4.457031 1.734375 -5.320312 1.421875 -6.1875 C 1.117188 -7.050781 0.925781 -8.109375 0.84375 -9.359375 Z M 0.84375 -9.359375 "/></g></g></g><g fill="#ffffff" fill-opacity="1"><g transform="translate(212.97063, 178.499988)"><g><path d="M 11.09375 0 C 11.09375 0 11.09375 -4.035156 11.09375 -12.109375 C 11.09375 -12.109375 7.492188 -18.992188 0.296875 -32.765625 C 0.296875 -32.765625 2.484375 -32.765625 6.859375 -32.765625 C 6.859375 -32.765625 9.285156 -27.738281 14.140625 -17.6875 C 14.140625 -17.6875 16.550781 -22.710938 21.375 -32.765625 C 21.375 -32.765625 23.5625 -32.765625 27.9375 -32.765625 C 27.9375 -32.765625 24.347656 -25.878906 17.171875 -12.109375 C 17.171875 -12.109375 17.171875 -8.070312 17.171875 0 C 17.171875 0 15.144531 0 11.09375 0 Z M 11.09375 0 "/></g></g></g><g fill="#ffffff" fill-opacity="1"><g transform="translate(141.354194, 222.749985)"><g><path d="M 3.140625 0 C 3.140625 0 3.140625 -10.921875 3.140625 -32.765625 C 3.140625 -32.765625 5.445312 -32.765625 10.0625 -32.765625 C 10.0625 -32.765625 14.585938 -24.816406 23.640625 -8.921875 C 23.640625 -8.921875 23.640625 -16.867188 23.640625 -32.765625 C 23.640625 -32.765625 25.660156 -32.765625 29.703125 -32.765625 C 29.703125 -32.765625 29.703125 -21.84375 29.703125 0 C 29.703125 0 27.445312 0 22.9375 0 C 22.9375 0 18.363281 -7.9375 9.21875 -23.8125 C 9.21875 -23.8125 9.21875 -15.875 9.21875 0 C 9.21875 0 7.191406 0 3.140625 0 Z M 3.140625 0 "/></g></g></g><g fill="#ffffff" fill-opacity="1"><g transform="translate(174.200613, 222.749985)"><g><path d="M 3.140625 0 C 3.140625 0 3.140625 -10.921875 3.140625 -32.765625 C 3.140625 -32.765625 5.914062 -32.765625 11.46875 -32.765625 C 11.46875 -32.765625 14.414062 -24.492188 20.3125 -7.953125 C 20.3125 -7.953125 23.21875 -16.222656 29.03125 -32.765625 C 29.03125 -32.765625 31.8125 -32.765625 37.375 -32.765625 C 37.375 -32.765625 37.375 -21.84375 37.375 0 C 37.375 0 35.351562 0 31.3125 0 C 31.3125 0 31.3125 -8.191406 31.3125 -24.578125 C 31.3125 -24.578125 28.457031 -16.382812 22.75 0 C 22.75 0 21.09375 0 17.78125 0 C 17.78125 0 14.925781 -8.191406 9.21875 -24.578125 C 9.21875 -24.578125 9.21875 -16.382812 9.21875 0 C 9.21875 0 7.191406 0 3.140625 0 Z M 3.140625 0 "/></g></g></g><g fill="#ffffff" fill-opacity="1"><g transform="translate(214.711917, 222.749985)"><g><path d="M 6.390625 0 C 6.390625 0 6.390625 -8.984375 6.390625 -26.953125 C 6.390625 -26.953125 4.359375 -26.953125 0.296875 -26.953125 C 0.296875 -26.953125 0.296875 -28.890625 0.296875 -32.765625 C 0.296875 -32.765625 6.375 -32.765625 18.53125 -32.765625 C 18.53125 -32.765625 18.53125 -30.828125 18.53125 -26.953125 C 18.53125 -26.953125 16.503906 -26.953125 12.453125 -26.953125 C 12.453125 -26.953125 12.453125 -17.96875 12.453125 0 C 12.453125 0 10.429688 0 6.390625 0 Z M 6.390625 0 "/></g></g></g></svg>